<svg viewBox="0 0 1024 1024" version="1.1" xmlns="http://www.w3.org/2000/svg" width="200" height="200">
  <path d="M682.666667 928H469.333333c-17.066667 0-32-14.933333-32-32V128c0-17.066667 14.933333-32 32-32h213.333334c17.066667 0 32 14.933333 32 32v768c0 17.066667-14.933333 32-32 32z m-181.333334-64h149.333334v-704h-149.333334v704z" fill="#F59E0B"></path>
  <path d="M896 928H682.666667c-17.066667 0-32-14.933333-32-32V128c0-17.066667 14.933333-32 32-32h213.333333c17.066667 0 32 14.933333 32 32v768c0 17.066667-14.933333 32-32 32z m-181.333333-64h149.333333v-704h-149.333333v704zM309.333333 928h-4.266666l-181.333334-21.333333c-17.066667 0-29.866667-17.066667-27.733333-36.266667l85.333333-746.666667c0-8.533333 4.266667-17.066667 12.8-21.333333s14.933333-8.533333 23.466667-6.4l170.666667 21.333333c17.066667 2.133333 29.866667 17.066667 27.733333 34.133334l-74.666667 746.666666c0 8.533333-4.266667 17.066667-12.8 21.333334-6.4 4.266667-12.8 6.4-19.2 6.4z m-145.066666-81.066667l117.333333 12.8 68.266667-682.666666-106.666667-12.8-78.933333 682.666666z" fill="#F59E0B"></path>
  <path d="M789.333333 416c-17.066667 0-32-14.933333-32-32v-64c0-17.066667 14.933333-32 32-32s32 14.933333 32 32v64c0 17.066667-14.933333 32-32 32zM576 416c-17.066667 0-32-14.933333-32-32v-64c0-17.066667 14.933333-32 32-32s32 14.933333 32 32v64c0 17.066667-14.933333 32-32 32z" fill="#D97706"></path>
</svg>
