<svg t="1782214270948" class="icon" viewBox="0 0 1332 1024" version="1.1" xmlns="http://www.w3.org/2000/svg" p-id="21314" width="200" height="200"><path d="M145.282082 885.090436a42.805465 42.805465 0 1 0 42.805465 42.805465 42.638907 42.638907 0 0 0-42.805465-42.805465z m0 58.961613a16.655823 16.655823 0 1 1 16.655823-16.655823 16.655823 16.655823 0 0 1-16.655823 16.822382zM1275.712791 865.103448a57.129473 57.129473 0 1 0 57.129473 57.129473 56.629798 56.629798 0 0 0-57.129473-57.129473z m0 86.61028a30.480156 30.480156 0 1 1 0-60.960312 30.14704 30.14704 0 0 1 30.480156 30.480156 30.646714 30.646714 0 0 1-30.480156 30.646714zM412.941158 85.777489a42.805465 42.805465 0 1 0-42.805465-42.805466 42.638907 42.638907 0 0 0 42.805465 42.805466z m0-58.961614a16.655823 16.655823 0 0 1 16.655823 16.655823 16.655823 16.655823 0 0 1-16.655823 16.655823 16.655823 16.655823 0 1 1 0-32.312297zM113.969135 606.1054a14.657124 14.657124 0 0 0-14.324008-14.324008H71.996461v-27.482108a14.324008 14.324008 0 1 0-28.648016 0v27.648667H15.866337a14.324008 14.324008 0 1 0 0 28.481457h27.648666v27.648666a14.324008 14.324008 0 0 0 28.648016 0v-27.648666H99.811685a14.657124 14.657124 0 0 0 14.15745-14.324008zM1030.872193 122.919974h27.648666V149.902407a14.324008 14.324008 0 0 0 28.648015 0V122.919974h27.648667a14.324008 14.324008 0 0 0 0-28.481457h-27.648667V66.623292a14.324008 14.324008 0 1 0-28.648015 0v27.648666H1030.872193a14.324008 14.324008 0 1 0 0 28.481458zM1039.533221 472.858816V374.756018a90.441119 90.441119 0 0 0-90.44112-90.441119H850.989304l-69.62134-69.454782a90.274561 90.274561 0 0 0-127.583605 0L584.496135 284.314899h-98.269356a90.441119 90.441119 0 0 0-90.441119 90.441119v98.102798l-69.454782 69.454782a90.274561 90.274561 0 0 0 0 127.583604l69.454782 69.454782v98.102798a90.441119 90.441119 0 0 0 90.441119 90.441119H584.496135l69.454782 69.454782a90.274561 90.274561 0 0 0 127.583605 0L850.989304 928.062459h98.102797a90.441119 90.441119 0 0 0 90.44112-90.441119V739.518543l69.454782-69.454782a90.274561 90.274561 0 0 0 0-127.583605zM914.781106 516.330514L686.263214 745.181522a35.81002 35.81002 0 0 1-31.479505 10.493169 29.480807 29.480807 0 0 1-7.661679-1.832141 24.48406 24.48406 0 0 1-12.658426-7.661678l-114.258946-114.258946a36.975927 36.975927 0 0 1 52.299285-52.299284l88.608978 88.608978L863.314613 466.363045a38.141835 38.141835 0 0 1 51.466493-1.832141 37.309044 37.309044 0 0 1 0 51.79961z" fill="#1A9D5C" p-id="21315"></path></svg>
