<svg viewBox="0 0 1024 1024" version="1.1" xmlns="http://www.w3.org/2000/svg" width="200" height="200">
  <path d="M716.78 992c-143.59999969 0-259.99999969-116.4-259.99999969-259.99999969s116.4-259.99999969 259.99999969-260.00000062 259.99999969 116.4 259.99999969 260.00000062-116.4 259.99999969-259.99999969 259.99999969z m0-460.00000031c-110.46 0-199.99999969 89.53999969-199.99999969 200.00000062s89.53999969 199.99999969 199.99999969 199.99999969 199.99999969-89.53999969 199.99999969-199.99999969-89.52-199.99999969-199.99999969-200.00000062z m100.00000031 220.00000031h-100.00000031a19.99999969 19.99999969 0 0 1-19.99999969-19.99999969v-120a19.99999969 19.99999969 0 1 1 39.99999938 0v99.99999938h80.00000062a19.99999969 19.99999969 0 1 1 0 40.00000031z m-41.80000031-379.99999969h-7.38a532.60000031 532.60000031 0 0 1-9.64000031 42.91999969A329.02000031 329.02000031 0 0 0 716.78 411.99999969c-6.73999969 0-13.32 0.58000031-19.96000031 1.02 3.9-13.27999969 7.44-26.89999969 10.26-41.01999938H286.50000031c20.92000031 105.19999969 73.99999969 188.56000031 141.45999938 222.91999969a317.68000031 317.68000031 0 0 0-27.25999969 89.56000031C256.89999969 721.80000031 143.91999969 840.78000031 108.66000031 992H47.22000031c35.58-174.64000031 162.01999969-314.05999969 325.45999969-361.84000031C300.8 579.09999969 246.44 485.40000031 225.96000031 372.00000031h-7.38l-1.44-28.40000062c-0.88000031-16.98-7.02-147.82000031 44.17999969-219.45999938C326.40000031 33.06000031 494.6 32 496.47999969 32c1.90000031 0 170.46 1.06000031 235.68 92.11999969 51.3 71.65999969 45.16000031 202.5 44.28 219.48L774.98 372.00000031zM685.62000031 159.87999969C649.26000031 109.08000031 546.56 92 496.47999969 92c-49.92 0-152.34 17.08000031-188.59999969 67.86-27.04000031 37.8-33.24 101.11999969-33.48 152.14000031h444.72c-0.24-51.06-6.48-114.42-33.49999969-152.12000062zM436.77999969 192.00000031h40.00000031V152a19.99999969 19.99999969 0 1 1 40.00000031 0v40.00000031h39.99999938a19.99999969 19.99999969 0 1 1 0 39.99999938h-39.99999938v40.00000031a19.99999969 19.99999969 0 1 1-40.00000031 0v-40.00000031h-40.00000031a19.99999969 19.99999969 0 1 1 0-39.99999938z m-139.99999969 600c33.12 0 60 26.88 60 60a59.80000031 59.80000031 0 0 1-32.65999969 53.11999969A79.90000031 79.90000031 0 0 0 396.78000031 951.99999969a79.60000031 79.60000031 0 0 0 63.78-32.16l0.48 0.38000062a19.68 19.68 0 0 1 15.72-8.20000031 19.99999969 19.99999969 0 0 1 19.99999969 19.99999969c0 6.01999969-2.80000031 11.26000031-7.00000031 14.92000031C467.79999969 974.18 434.55999969 992 396.78000031 992c-52.74 0-97.03999969-34.26-113.12000062-81.54A59.95999969 59.95999969 0 0 1 296.78 792.00000031z m0 79.99999969a19.99999969 19.99999969 0 1 0 0-40.00000031 19.99999969 19.99999969 0 1 0 0 40.00000031z" fill="#3B6BF5"></path>
</svg>
