<svg t="1782216081713" class="icon" viewBox="0 0 1024 1024" version="1.1" xmlns="http://www.w3.org/2000/svg" p-id="29376" width="200" height="200"><path d="M698.709333 216.32a108.928 108.928 0 1 0 0 217.856 108.928 108.928 0 0 0 0-217.856z m-46.677333 108.928a46.677333 46.677333 0 1 1 93.397333 0 46.677333 46.677333 0 0 1-93.397333 0zM652.032 589.781333c0-21.162667 6.101333-37.12 14.336-47.146666a40.021333 40.021333 0 0 1 32.341333-15.061334c13.824 0 24.533333 5.504 32.341334 15.061334 8.234667 10.026667 14.378667 25.984 14.378666 47.146666v217.856a31.146667 31.146667 0 0 0 62.208 0v-217.856c0-32.725333-9.429333-63.445333-28.458666-86.613333a102.186667 102.186667 0 0 0-80.469334-37.845333c-32.853333 0-61.056 14.165333-80.469333 37.845333-18.986667 23.168-28.458667 53.888-28.458667 86.613333v78.805334l-82.133333 68.48a31.146667 31.146667 0 1 0 39.850667 47.786666l93.354666-77.781333a31.146667 31.146667 0 0 0 11.178667-23.893333v-93.397334z" fill="#035DFF" p-id="29377"></path><path d="M309.717333 185.173333a93.354667 93.354667 0 1 0 0 186.752 93.354667 93.354667 0 0 0 0-186.709333z m-31.146666 93.397334a31.146667 31.146667 0 1 1 62.293333 0 31.146667 31.146667 0 0 1-62.293333 0zM325.248 403.072c-32.853333 0-61.056 14.208-80.469333 37.845333-18.986667 23.168-28.416 53.888-28.416 86.613334v280.106666a31.146667 31.146667 0 0 0 62.208 0v-280.064c0-21.205333 6.144-37.12 14.336-47.189333a40.021333 40.021333 0 0 1 32.341333-15.061333c13.824 0 24.533333 5.546667 32.384 15.061333 8.192 10.026667 14.336 26.026667 14.336 47.189333v62.208a31.146667 31.146667 0 0 0 11.178667 23.893334l93.354666 77.824a31.146667 31.146667 0 1 0 39.850667-47.786667l-82.176-68.48v-47.658667c0-32.768-9.429333-63.488-28.416-86.656a102.229333 102.229333 0 0 0-80.469333-37.845333z" fill="#2B2F36" p-id="29378"></path></svg>
